<svg version="1.2" xmlns="http://www.w3.org/2000/svg" viewBox="0 0 1542 1378" width="1542" height="1378">
	<title>Symbotic Investor Presentation 2022-1-pdf-svg</title>
	<defs>
		<clipPath clipPathUnits="userSpaceOnUse" id="cp1">
			<path d="m-17439.71-3166.79h25367.53v14250.54h-25367.53z"/>
		</clipPath>
	</defs>
	<style>
		.s0 { fill: #4f5354 } 
		.s1 { fill: #78be20 } 
	</style>
	<g id="Clip-Path: Page 1" clip-path="url(#cp1)">
		<g id="Page 1">
			<path id="Path 5" class="s0" d="m1049.5 72.6l379.2 238.8c72.7 46.2 112.3 108.2 112.3 170.2 0 62-37 120.1-105.7 165l-664.6-418.3-401.6 253.3 664.6 418.3-263 166.3-656.6-414.4c-72.7-46.2-112.3-106.8-112.3-170.2 0-64.6 39.6-125.3 112.3-170.2l376.5-238.8c75.4-46.2 174.4-72.6 280.1-72.6 104.4 0 203.5 26.4 278.8 72.6z"/>
			<path id="Path 6" class="s1" d="m770.7 1149.3l401.7-253.4-664.6-418.2 262.9-166.3 656.7 415.6c72.7 44.9 113.6 105.6 113.6 168.9 0 64.7-40.9 125.4-113.6 171.6l-376.6 237.5c-73.9 46.2-173 72.6-278.7 72.6-105.7 0-204.8-26.4-278.8-72.6l-379.2-238.8c-72.7-46.2-113.6-108.2-113.6-170.3 0-62 38.3-120 105.7-164.9z"/>
		</g>
	</g>
</svg>